<?xml version="1.0" standalone="no"?>
<!DOCTYPE svg PUBLIC "-//W3C//DTD SVG 20010904//EN"
 "http://www.w3.org/TR/2001/REC-SVG-20010904/DTD/svg10.dtd">
<svg version="1.0" xmlns="http://www.w3.org/2000/svg"
 width="16.000000pt" height="16.000000pt" viewBox="0 0 16.000000 16.000000"
 preserveAspectRatio="xMidYMid meet">
<metadata>
Created by potrace 1.11, written by Peter Selinger 2001-2013
</metadata>
<g transform="translate(0.000000,16.000000) scale(0.003471,-0.003471)"
fill="#000000" stroke="none">
<path d="M1963 4320 c-2 -3 -19 -6 -36 -7 -38 -1 -59 -6 -112 -26 -79 -30
-105 -42 -105 -49 0 -4 -7 -8 -15 -8 -8 0 -15 -4 -15 -8 0 -5 -11 -14 -25 -20
-14 -6 -25 -16 -25 -22 0 -5 21 5 48 24 26 19 70 42 98 51 68 22 193 42 223
37 l24 -5 -24 -12 c-13 -7 -41 -15 -61 -19 -50 -9 -55 -21 -10 -23 68 -4 112
-12 140 -27 35 -19 29 -19 -33 0 -86 26 -198 20 -295 -16 -47 -17 -90 -37 -96
-45 -6 -8 -24 -16 -40 -18 -16 -3 -28 -10 -26 -16 1 -6 -1 -10 -5 -9 -5 2 -21
-6 -36 -17 -66 -47 -143 -105 -151 -114 -35 -39 -43 -50 -49 -65 -4 -9 10 0
30 21 20 21 36 41 35 45 -1 4 5 5 13 2 8 -4 15 -2 15 4 0 5 7 13 16 16 16 6
14 0 -18 -46 -11 -16 -16 -33 -12 -39 4 -8 3 -9 -4 -5 -10 6 -44 -44 -41 -60
0 -4 -4 -10 -11 -14 -6 -4 -12 -18 -12 -31 -2 -21 -12 -40 -66 -124 -35 -55
-71 -149 -86 -225 -9 -47 -30 -115 -46 -151 -23 -50 -33 -92 -41 -170 -5 -57
-14 -142 -19 -189 -4 -47 -14 -98 -20 -115 -6 -16 -15 -75 -20 -130 -4 -55
-11 -107 -14 -117 -6 -12 1 -19 28 -29 39 -14 39 -14 36 -75 -1 -22 6 -60 15
-85 9 -24 18 -55 21 -69 3 -14 11 -52 19 -85 7 -33 23 -124 34 -203 12 -78 31
-168 43 -199 23 -64 82 -133 147 -175 53 -33 85 -38 50 -7 -21 18 -21 20 -4
13 11 -4 32 -9 46 -11 35 -6 43 -24 79 -158 17 -64 40 -140 51 -168 80 -210
260 -408 485 -535 40 -22 101 -62 137 -90 36 -27 91 -62 123 -78 53 -26 69
-29 154 -28 193 1 268 19 393 97 63 39 152 133 227 241 101 146 108 154 114
136 3 -8 17 -82 33 -165 28 -148 28 -155 28 -527 l-1 -378 658 0 658 0 0 263
0 262 -252 78 c-511 157 -717 227 -815 276 l-98 50 -76 119 -77 120 62 123
c81 161 123 291 146 450 18 122 21 131 50 155 17 15 37 39 45 54 17 33 67 228
61 238 -2 4 -7 46 -11 95 -7 92 1 177 16 177 5 0 7 -12 4 -27 l-6 -28 15 25
c8 14 15 46 16 73 0 49 11 60 30 30 10 -18 8 18 -6 85 -2 12 0 22 5 22 5 0 2
18 -7 39 -9 22 -20 37 -24 35 -17 -11 -43 65 -49 141 l-6 80 -1 -72 c-1 -47 5
-92 18 -135 26 -84 25 -91 -5 -32 -23 45 -48 145 -46 183 5 84 -11 157 -32
144 -6 -3 -7 -1 -3 6 5 7 -11 34 -39 67 -52 61 -42 71 13 12 19 -21 39 -35 45
-31 6 3 7 1 3 -5 -3 -6 3 -26 14 -44 l19 -32 -6 39 c-6 41 10 41 20 0 2 -11 3
-4 1 16 -4 38 -27 93 -52 122 -8 9 -12 20 -8 25 12 11 54 -47 76 -106 11 -29
21 -76 21 -105 2 -57 2 -55 25 112 18 127 14 171 -22 280 -14 40 -23 76 -20
78 3 3 -4 14 -15 26 -23 25 -24 33 -3 41 13 5 14 4 6 -7 -7 -8 -9 -17 -6 -20
9 -8 44 11 44 24 0 6 -4 8 -9 5 -5 -3 -12 2 -15 11 -4 10 -4 14 0 10 10 -10
54 128 54 168 0 51 -42 146 -57 131 -3 -3 -30 11 -61 30 -32 20 -44 25 -29 12
114 -94 112 -90 112 -165 0 -45 -6 -80 -18 -104 -24 -49 -114 -148 -114 -126
0 9 4 14 8 11 7 -4 23 14 24 26 0 3 12 21 27 41 87 113 75 219 -32 274 -54 28
-176 75 -193 75 -6 0 29 -21 78 -46 87 -44 135 -82 135 -107 0 -7 -5 -4 -11 6
-5 9 -28 26 -50 38 -74 38 -256 96 -266 85 -3 -3 12 -8 33 -12 58 -10 188 -79
218 -114 31 -38 33 -76 7 -128 -17 -34 -67 -80 -83 -78 -3 1 -17 -9 -30 -21
-13 -12 -50 -34 -82 -49 -51 -23 -74 -27 -153 -28 -65 -1 -93 -5 -93 -13 0
-13 -74 5 -147 37 -24 11 -43 17 -43 15 0 -9 89 -54 139 -70 51 -17 178 -24
211 -12 8 3 45 9 82 12 37 4 70 11 74 16 3 5 10 7 15 4 5 -4 9 -1 9 5 0 6 4 9
8 6 5 -3 25 4 45 14 41 22 47 24 47 13 -1 -25 -105 -68 -194 -80 -24 -3 -34
-8 -26 -13 18 -11 3 -30 -23 -30 -12 0 -29 -5 -37 -11 -11 -7 -4 -9 27 -6 50
5 47 10 63 -128 7 -55 20 -138 30 -185 18 -82 28 -153 34 -232 3 -33 -1 -41
-28 -59 l-31 -20 33 6 c41 8 42 -9 1 -31 -45 -23 -70 -12 -113 50 -45 65 -69
76 -188 83 -91 6 -126 -2 -181 -40 -41 -28 -28 -30 24 -4 61 31 214 32 273 2
56 -28 59 -50 4 -25 -88 39 -232 28 -285 -22 -23 -21 -17 -38 12 -38 6 0 4 4
-4 9 -11 7 -10 11 7 20 31 16 39 14 46 -14 6 -23 11 -25 59 -25 76 0 95 8 102
40 6 27 8 28 37 18 l31 -11 -27 -24 c-17 -14 -22 -23 -13 -23 8 0 20 7 27 15
19 23 66 18 97 -11 24 -23 34 -25 74 -21 42 5 48 4 53 -16 9 -33 7 -40 -6 -30
-7 6 -29 13 -48 16 l-35 6 40 -19 c63 -30 71 -40 89 -118 16 -63 17 -81 6
-137 -7 -36 -17 -65 -22 -65 -5 0 -7 -4 -4 -9 4 -5 1 -22 -5 -38 -22 -58 -39
-196 -39 -328 0 -121 -16 -317 -32 -404 -9 -46 -27 -88 -68 -154 -48 -79 -64
-97 -125 -138 -62 -41 -101 -79 -204 -194 -15 -17 -49 -38 -76 -47 l-50 -17
45 5 c25 3 40 2 34 -3 -5 -4 -83 -92 -173 -195 -89 -104 -168 -188 -174 -188
-8 0 -9 3 -1 8 6 4 34 56 62 115 l51 108 -32 -23 c-58 -41 -189 -179 -183
-194 18 -46 -115 22 -207 106 -40 36 -107 88 -150 115 -42 27 -77 53 -77 58 0
6 -3 7 -6 4 -10 -9 -65 33 -59 44 4 5 0 6 -8 4 -7 -3 -26 6 -41 20 -15 14 -31
25 -35 25 -46 0 -222 331 -287 540 -16 49 -88 361 -98 425 -4 22 -10 48 -13
59 -3 12 -1 16 6 12 6 -4 4 6 -4 21 -17 35 -36 124 -38 180 -1 24 -5 43 -8 43
-4 0 -9 15 -11 34 -3 24 0 32 9 29 7 -3 13 1 13 8 0 8 9 -4 19 -26 17 -37 17
-41 2 -54 -14 -12 -14 -12 6 -7 17 6 27 -1 53 -39 38 -56 63 -113 56 -131 -3
-7 -1 -14 4 -16 5 -2 10 -21 12 -43 2 -22 7 -46 11 -52 4 -6 8 -23 9 -37 1
-14 6 -26 10 -26 4 0 7 -3 6 -7 -4 -22 46 -93 57 -81 3 3 1 43 -4 89 -6 46
-12 109 -15 139 -3 30 -8 89 -11 130 -10 102 -24 131 -102 211 -105 105 -99
94 -73 148 13 25 24 49 24 53 1 3 4 10 8 14 4 4 3 14 -4 21 -8 9 -8 17 -2 21
6 4 11 79 11 181 1 102 6 178 12 184 7 7 7 16 0 30 -7 12 -7 17 -1 13 5 -3 15
1 22 9 7 8 17 12 23 8 6 -3 7 -1 3 6 -4 6 0 14 11 18 21 8 30 17 61 60 25 37
29 51 7 33 -8 -7 -15 -9 -15 -4 0 4 -7 -1 -15 -12 -8 -10 -15 -15 -15 -11 0
11 20 49 36 67 39 43 64 73 64 76 0 11 -19 1 -48 -26 -18 -16 -36 -30 -40 -30
-4 0 15 20 41 43 78 73 58 71 -55 -4 -64 -42 -79 -36 -21 8 59 44 62 46 94 78
23 23 31 27 38 16 6 -9 10 -4 13 18 4 25 1 31 -14 31 -12 0 -16 -4 -12 -12 4
-6 3 -8 -3 -5 -6 4 -16 0 -23 -8 -7 -8 -16 -15 -21 -15 -4 0 -25 -10 -46 -22
-20 -12 -43 -23 -51 -24 -20 -3 -53 -35 -46 -45 3 -5 -3 -6 -12 -2 -12 4 -15
3 -10 -5 4 -7 2 -10 -6 -7 -8 3 -29 -11 -48 -31 l-35 -37 50 28 50 27 -40 -36
-40 -36 48 26 c67 37 68 24 2 -20 -66 -44 -73 -58 -11 -23 40 22 44 23 43 7 0
-10 -6 -16 -12 -14 -5 2 -28 -12 -50 -31 -22 -19 -35 -34 -28 -35 6 0 18 6 25
13 7 6 20 13 28 14 8 1 29 5 45 8 l30 6 -28 -16 c-32 -19 -30 -33 2 -15 39 21
21 -5 -23 -33 -24 -15 -57 -44 -73 -65 -52 -69 -95 -134 -111 -171 -13 -30
-17 -32 -20 -15 -1 11 4 41 12 65 13 37 13 41 1 25 -8 -11 -16 -18 -17 -15 -2
2 -1 63 2 134 5 128 6 132 40 188 19 32 53 79 76 105 47 54 141 111 141 87 0
-8 -4 -15 -9 -15 -18 0 -68 -45 -93 -82 -33 -49 -32 -53 9 -26 28 19 32 25 23
38 -10 13 -10 13 4 2 17 -13 49 -7 49 10 0 5 5 6 10 3 6 -3 10 -1 10 5 0 6 5
8 11 5 6 -4 16 0 22 9 7 9 21 17 32 19 11 1 37 13 56 25 20 12 41 22 48 22 6
0 11 4 11 10 0 5 11 12 25 16 14 3 25 10 25 16 0 5 4 7 9 3 6 -3 15 4 21 15 6
11 15 20 20 20 6 0 26 18 46 40 20 22 40 37 45 34 5 -3 9 -3 9 1 0 3 -12 10
-26 15 -19 8 -31 7 -42 -2 -14 -12 -14 -11 -1 10 16 25 22 26 50 12 15 -9 26
-6 53 15 18 14 41 25 52 26 10 0 -5 7 -35 14 l-54 13 -101 -67 c-137 -91 -315
-198 -346 -207 l-25 -7 20 23 c11 12 19 24 17 27 -2 3 0 8 4 11 4 4 4 1 0 -5
-11 -19 0 -16 44 13 41 27 49 45 11 25 -11 -7 -41 -15 -66 -20 -38 -7 -44 -6
-34 5 6 8 17 14 23 14 6 0 33 10 59 23 l49 22 -94 1 c-51 0 -111 6 -132 14
l-39 13 39 13 c21 8 68 14 103 14 80 0 76 6 -9 15 -79 8 -104 19 -67 29 16 4
34 21 48 46 13 22 30 40 38 40 13 -1 13 -2 -2 -11 -9 -5 -23 -22 -31 -37 l-14
-27 86 7 c48 3 110 11 137 17 28 6 89 18 136 26 77 13 234 61 282 86 20 11
276 54 387 65 41 4 67 10 57 12 -9 2 -101 -6 -205 -18 -159 -18 -196 -19 -248
-9 -58 12 -152 5 -248 -17 -23 -6 -27 -4 -21 7 6 11 5 12 -6 2 -17 -17 -67
-16 -104 3 -16 8 -21 12 -11 9 42 -12 88 -16 83 -8 -3 5 17 18 46 28 70 25 47
29 -35 7 -79 -22 -87 -8 -15 25 78 36 53 45 -35 13 -45 -17 -83 -30 -86 -30
-2 0 0 -5 3 -10 4 -6 11 -7 17 -4 7 4 8 2 4 -4 -5 -9 -14 -7 -31 5 l-23 18 25
13 c21 12 23 16 11 30 -11 15 -11 15 3 4 14 -10 26 -7 75 19 l59 31 -50 -7
c-27 -4 -58 -11 -68 -17 -10 -5 -21 -7 -25 -4 -10 11 23 36 74 56 72 28 35 24
-53 -5 -56 -19 -79 -23 -87 -15 -6 7 -7 10 -1 9 6 -2 28 7 50 19 22 13 30 20
18 17 -17 -5 -22 -2 -20 13 1 13 6 18 16 14 9 -3 12 -1 7 6 -5 8 -1 10 10 5
10 -4 15 -2 11 3 -3 5 2 10 11 11 9 0 46 13 82 28 62 27 69 27 190 22 96 -4
157 -14 265 -41 76 -19 140 -34 142 -32 2 1 -30 16 -69 31 -40 16 -82 34 -94
42 -11 7 -24 10 -29 6 -4 -5 -5 -3 -2 3 6 11 -92 64 -118 64 -8 0 -15 5 -15
11 0 5 -5 7 -12 3 -7 -4 -8 -3 -4 4 8 13 17 12 86 -7 111 -30 247 -79 398
-142 89 -38 175 -71 190 -74 l27 -5 -25 11 c-105 51 -269 135 -290 149 -14 10
-72 28 -129 41 -58 13 -98 25 -90 27 22 4 185 -35 219 -53 35 -18 44 -19 34
-3 -4 7 -3 8 5 4 6 -4 9 -11 6 -16 -3 -5 27 -18 67 -30 40 -12 116 -35 168
-52 52 -17 102 -33 110 -35 8 -3 -25 19 -73 48 -102 61 -102 77 0 26 71 -36
151 -62 161 -53 3 3 -17 15 -44 27 -27 12 -83 40 -124 63 -41 22 -79 42 -85
43 -36 8 -153 53 -125 48 70 -12 85 -16 95 -25 6 -5 20 -7 30 -6 25 4 101 -24
207 -76 133 -65 234 -96 122 -37 -106 55 -112 80 -8 34 57 -25 154 -57 154
-50 0 6 -115 68 -170 91 l-55 23 50 -6 c50 -6 136 -36 165 -58 8 -6 29 -17 45
-23 26 -11 23 -6 -20 33 -86 79 -138 100 -330 135 -119 22 -509 28 -521 8 -5
-7 -3 -8 6 -3 8 5 11 4 7 -2 -7 -11 -57 -5 -57 6 0 7 -229 9 -237 1z m351 -32
c-3 -4 4 -8 15 -8 11 0 23 -5 26 -11 4 -6 13 -8 19 -6 7 3 13 -1 13 -7 0 -9
-14 -7 -49 8 -48 20 -61 33 -33 33 8 0 12 -4 9 -9z m70 4 c3 -5 -1 -9 -9 -9
-8 0 -12 4 -9 9 3 4 7 8 9 8 2 0 6 -4 9 -8z m-291 -19 c-7 -2 -19 -2 -25 0 -7
3 -2 5 12 5 14 0 19 -2 13 -5z m44 -9 c-3 -3 -12 -4 -19 -1 -8 3 -5 6 6 6 11
1 17 -2 13 -5z m378 -45 c3 -4 0 -11 -6 -15 -8 -4 -9 -3 -5 4 5 8 0 12 -13 12
-12 0 -21 4 -21 9 0 11 38 3 45 -10z m81 -48 c1 -12 -1 -19 -5 -15 -3 3 -6 11
-6 17 0 5 -5 12 -12 14 -8 3 -11 -3 -8 -17 2 -11 0 -18 -5 -15 -5 3 -7 14 -5
25 2 13 -2 20 -11 20 -8 0 -14 4 -14 10 0 5 15 3 33 -5 21 -9 32 -21 33 -34z
m238 18 c-4 -7 -44 0 -44 7 0 2 11 3 24 2 14 -1 23 -5 20 -9z m-1277 -106 c-4
-3 -2 -12 4 -19 7 -8 6 -14 -2 -20 -7 -4 -9 -3 -5 4 3 6 2 13 -4 17 -10 6 -5
25 7 25 4 0 3 -3 0 -7z m-70 -72 c0 -11 -5 -18 -9 -15 -4 3 -5 11 -1 19 7 21
12 19 10 -4z m114 -28 c12 -16 12 -17 -2 -6 -9 7 -20 9 -24 5 -5 -4 -5 -1 -1
6 9 16 11 15 27 -5z m-126 -22 c3 -5 2 -12 -3 -15 -5 -3 -9 1 -9 9 0 17 3 19
12 6z m71 -16 c-1 -8 -5 -17 -8 -21 -5 -4 -4 16 1 34 3 9 9 -1 7 -13z m39 -4
c3 -5 2 -12 -3 -15 -5 -3 -9 1 -9 9 0 17 3 19 12 6z m-105 -41 c0 -5 -10 -14
-22 -20 -21 -10 -21 -10 -6 3 10 8 15 17 11 20 -3 4 -1 7 5 7 7 0 12 -4 12
-10z m-50 -37 c0 -5 -19 -23 -43 -42 -27 -23 -34 -26 -19 -10 12 14 19 29 15
34 -5 4 -2 5 5 1 6 -4 12 -2 12 4 0 6 5 8 10 5 6 -3 10 -1 10 4 0 6 2 11 5 11
3 0 5 -3 5 -7z m74 -8 c-10 -8 -22 -15 -26 -15 -4 0 -26 -19 -49 -42 l-41 -43
31 42 c18 24 44 49 59 57 36 19 50 20 26 1z m127 -10 c11 6 11 5 2 -5 -12 -14
-33 -6 -33 13 0 8 3 7 9 -2 5 -8 14 -10 22 -6z m404 5 c-3 -5 -16 -10 -28 -10
-18 0 -19 2 -7 10 20 13 43 13 35 0z m42 4 c-3 -3 -12 -4 -19 -1 -8 3 -5 6 6
6 11 1 17 -2 13 -5z m-412 -24 c-3 -5 -12 -10 -18 -10 -7 0 -6 4 3 10 19 12
23 12 15 0z m312 4 c-3 -3 -12 -4 -19 -1 -8 3 -5 6 6 6 11 1 17 -2 13 -5z
m-272 -13 c3 -6 -3 -9 -14 -8 -11 0 -17 5 -15 9 7 11 22 10 29 -1z m63 -8
c-10 -2 -26 -2 -35 0 -10 3 -2 5 17 5 19 0 27 -2 18 -5z m80 0 c-10 -2 -28 -2
-40 0 -13 2 -5 4 17 4 22 1 32 -1 23 -4z m-215 -12 c13 -2 7 -18 -8 -18 -8 0
-12 4 -9 9 3 5 -6 7 -20 4 -15 -3 -24 -1 -21 3 4 7 25 8 58 2z m-150 -16 c-3
-9 -8 -14 -10 -11 -3 3 -2 9 2 15 9 16 15 13 8 -4z m236 -11 c10 -9 -45 -3
-59 6 -11 7 -5 8 20 4 19 -4 37 -8 39 -10z m-203 -38 c0 -14 -3 -23 -7 -20 -6
3 -6 22 0 42 3 10 7 -2 7 -22z m47 9 c4 -8 3 -16 -1 -19 -4 -3 -9 4 -9 15 -2
23 3 25 10 4z m77 0 c52 -14 53 -15 11 -10 -24 3 -51 10 -60 15 -21 12 -16 12
49 -5z m1918 -10 c-3 -3 -9 2 -12 12 -6 14 -5 15 5 6 7 -7 10 -15 7 -18z m39
-7 c-3 -8 -6 -5 -6 6 -1 11 2 17 5 13 3 -3 4 -12 1 -19z m-2120 -3 c0 -8 -4
-12 -9 -9 -5 3 -6 10 -3 15 9 13 12 11 12 -6z m2133 -31 c0 -33 -24 -95 -46
-119 -12 -13 -19 -27 -15 -30 3 -4 2 -6 -4 -5 -22 5 -29 -1 -15 -11 13 -9 12
-10 -2 -5 -21 6 -71 -18 -60 -29 4 -5 1 -5 -7 0 -11 7 -8 13 15 32 16 13 28
27 27 32 -1 5 5 8 14 7 20 -1 72 79 75 117 3 29 18 38 18 11z m-1680 2 c0 -2
-8 -10 -17 -17 -16 -13 -17 -12 -4 4 13 16 21 21 21 13z m1624 -54 c3 -5 -1
-9 -9 -9 -8 0 -12 4 -9 9 3 4 7 8 9 8 2 0 6 -4 9 -8z m-1714 -26 c0 -2 -8 -10
-17 -17 -16 -13 -17 -12 -4 4 13 16 21 21 21 13z m-504 -84 c-17 -16 -18 -16
-5 5 7 12 15 20 18 17 3 -2 -3 -12 -13 -22z m64 3 c-16 -19 -31 -19 -24 0 4 8
10 12 15 9 5 -3 9 0 9 7 0 7 3 9 6 6 4 -4 1 -13 -6 -22z m41 -8 c-10 -9 -11
-8 -5 6 3 10 9 15 12 12 3 -3 0 -11 -7 -18z m-27 -60 c-10 -20 -23 -38 -30
-41 -7 -3 -2 11 12 31 13 20 24 40 24 46 0 6 2 8 5 5 3 -3 -2 -22 -11 -41z
m266 39 c0 -2 -16 -13 -35 -25 -19 -11 -35 -18 -35 -16 0 5 61 45 68 45 1 0 2
-2 2 -4z m1720 -29 c0 -5 -4 -5 -10 -2 -5 3 -10 14 -10 23 0 15 2 15 10 2 5
-8 10 -19 10 -23z m200 8 c-7 -8 -17 -15 -23 -15 -6 0 -2 7 9 15 25 19 30 19
14 0z m15 -15 c-3 -5 0 -10 7 -10 9 0 9 -3 -2 -10 -8 -5 -19 -10 -25 -10 -5 0
-3 5 5 10 8 5 11 10 7 10 -9 0 1 20 9 20 3 0 2 -4 -1 -10z m-2015 -5 c0 -2
-10 -9 -22 -15 -22 -11 -22 -10 -4 4 21 17 26 19 26 11z m-163 -20 c0 -8 -4
-12 -9 -9 -5 3 -6 10 -3 15 9 13 12 11 12 -6z m-13 -23 c3 -5 -1 -9 -9 -9 -8
0 -12 4 -9 9 3 4 7 8 9 8 2 0 6 -4 9 -8z m2006 -37 c0 -5 -5 -3 -10 5 -5 8
-10 20 -10 25 0 6 5 3 10 -5 5 -8 10 -19 10 -25z m44 10 c3 -8 1 -15 -4 -15
-6 0 -10 7 -10 15 0 8 2 15 4 15 2 0 6 -7 10 -15z m-2066 -2 c-9 -2 -20 -13
-23 -24 -4 -10 -11 -19 -16 -19 -10 0 -5 13 14 38 5 6 17 11 26 11 14 -1 14
-2 -1 -6z m2233 -40 c12 -16 12 -17 -2 -6 -9 7 -20 9 -24 5 -5 -4 -5 -1 -1 6
9 16 11 15 27 -5z m-2288 -28 c-3 -9 -8 -14 -10 -11 -3 3 -2 9 2 15 9 16 15
13 8 -4z m2087 -10 c13 -14 21 -25 18 -25 -2 0 -15 11 -28 25 -13 14 -21 25
-18 25 2 0 15 -11 28 -25z m144 7 c3 -5 -1 -9 -9 -9 -8 0 -12 4 -9 9 3 4 7 8
9 8 2 0 6 -4 9 -8z m105 -67 c0 -5 -6 1 -14 15 -8 14 -14 30 -14 35 0 6 6 -1
14 -15 8 -14 14 -29 14 -35z m-2368 22 c-10 -9 -11 -8 -5 6 3 10 9 15 12 12 3
-3 0 -11 -7 -18z m2138 -43 c14 -12 -19 -1 -35 12 -18 14 -18 14 6 3 14 -6 27
-13 29 -15z m214 -76 c4 -10 5 -18 2 -18 -4 0 -35 60 -35 69 0 8 26 -32 33
-51z m-202 15 c13 -16 12 -17 -3 -4 -17 13 -22 21 -14 21 2 0 10 -8 17 -17z
m-2196 -53 c-9 -41 -17 -33 -9 9 4 17 9 30 11 27 3 -2 2 -19 -2 -36z m2215
-22 c0 -12 -6 -9 -26 13 -19 22 -19 22 4 8 12 -8 22 -17 22 -21z m21 -85 c13
-16 12 -17 -3 -4 -17 13 -22 21 -14 21 2 0 10 -8 17 -17z m-2051 -10 c0 -5
-10 -19 -21 -33 l-21 -25 18 33 c18 32 24 38 24 25z m2124 -19 c3 -8 2 -12 -4
-9 -6 3 -10 10 -10 16 0 14 7 11 14 -7z m-2343 -75 c-5 -13 -10 -19 -10 -12
-1 15 10 45 15 40 3 -2 0 -15 -5 -28z m141 -49 c-14 -32 -28 -57 -30 -56 -2 2
4 21 13 42 9 22 18 46 20 54 2 8 4 16 4 18 1 1 5 2 10 2 5 0 -3 -27 -17 -60z
m-164 -2 c-7 -13 -11 -27 -10 -31 1 -5 -3 -5 -9 -1 -9 5 -10 2 -6 -10 5 -11 3
-15 -5 -10 -8 5 -9 2 -5 -9 3 -10 2 -17 -3 -17 -6 0 -9 -3 -8 -7 2 -8 -30 -73
-36 -73 -7 0 47 126 66 153 23 33 34 36 16 5z m216 -10 c-4 -13 -11 -34 -17
-48 -6 -14 -11 -27 -11 -30 -4 -18 -29 -70 -33 -66 -2 2 3 18 12 35 8 17 13
31 9 31 -4 0 -2 6 3 13 6 6 16 29 22 50 7 20 15 37 17 37 3 0 2 -10 -2 -22z
m2026 -12 c0 -2 -8 -10 -17 -17 -16 -13 -17 -12 -4 4 13 16 21 21 21 13z m120
-26 c0 -5 -2 -10 -4 -10 -3 0 -8 5 -11 10 -3 6 -1 10 4 10 6 0 11 -4 11 -10z
m-2364 -64 c-10 -25 -30 -61 -47 -82 -37 -47 -38 -36 -1 15 15 21 34 57 42 80
7 22 15 39 18 36 3 -2 -3 -25 -12 -49z m274 21 c0 -2 -10 -12 -22 -23 l-23
-19 19 23 c18 21 26 27 26 19z m1960 -12 c0 -2 -10 -9 -22 -15 -22 -11 -22
-10 -4 4 21 17 26 19 26 11z m-450 -21 c0 -8 -4 -12 -10 -9 -5 3 -10 10 -10
16 0 5 5 9 10 9 6 0 10 -7 10 -16z m-1585 -70 c-8 -20 -15 -39 -15 -42 0 -3
-2 -3 -5 0 -6 5 22 78 30 78 3 0 -2 -16 -10 -36z m2192 -6 c-3 -8 -6 -5 -6 6
-1 11 2 17 5 13 3 -3 4 -12 1 -19z m-2141 -56 c-18 -16 -18 -16 -6 6 6 13 14
21 18 18 3 -4 -2 -14 -12 -24z m2128 -16 c-3 -15 -8 -25 -11 -23 -2 3 -1 17 3
31 3 15 8 25 11 23 2 -3 1 -17 -3 -31z m-2380 9 c-4 -8 -11 -15 -16 -15 -6 0
-5 6 2 15 7 8 14 15 16 15 2 0 1 -7 -2 -15z m74 -42 c19 -38 22 -83 6 -90 -12
-4 -14 -19 -10 -77 4 -59 1 -77 -17 -109 -20 -35 -20 -41 -7 -80 15 -42 39
-61 94 -72 15 -3 26 -9 23 -12 -4 -3 -1 -15 5 -26 10 -20 11 -20 24 -3 12 18
13 18 13 0 0 -11 6 -59 14 -107 l14 -89 -25 -9 c-34 -13 -70 -4 -110 29 -32
26 -33 31 -35 100 -1 52 2 75 12 81 10 7 10 10 1 16 -7 4 -16 2 -21 -6 -11
-19 -42 19 -38 47 0 4 -5 11 -13 15 -20 13 -15 268 7 326 10 24 15 53 12 64
-4 15 0 19 19 19 13 0 27 -8 32 -17z m2336 -373 c-4 -19 -11 -43 -15 -52 -6
-10 -5 -18 3 -20 9 -3 9 -15 -1 -50 -16 -57 -48 -111 -61 -103 -5 3 -7 0 -4
-8 3 -8 1 -18 -4 -21 -5 -3 -10 44 -11 114 -1 123 9 152 32 90 6 -16 17 -32
24 -34 9 -4 10 1 3 20 -6 14 -10 85 -10 157 l1 132 24 -95 c17 -62 23 -107 19
-130z m-2228 138 c2 -29 7 -78 12 -108 l10 -54 -28 31 c-28 32 -31 52 -16 118
2 11 5 33 5 49 1 47 13 21 17 -36z m-217 -68 l0 -35 -15 45 c-18 58 -18 69 1
44 8 -10 14 -35 14 -54z m68 -240 c2 -14 -10 6 -27 43 -16 38 -30 72 -30 75 2
15 54 -95 57 -118z m1973 -754 c0 -2 -8 -10 -17 -17 -16 -13 -17 -12 -4 4 13
16 21 21 21 13z m-20 -59 c0 -2 -10 -12 -22 -23 l-23 -19 19 23 c18 21 26 27
26 19z m54 -9 c-10 -17 -105 -140 -117 -153 -21 -22 9 23 62 93 51 66 74 91
55 60z m-124 -42 c0 -2 -8 -10 -17 -17 -16 -13 -17 -12 -4 4 13 16 21 21 21
13z m-80 -59 c0 -2 -15 -16 -32 -33 l-33 -29 29 33 c28 30 36 37 36 29z m-60
-261 c0 -2 -7 -9 -15 -16 -13 -11 -14 -10 -9 4 5 14 24 23 24 12z m-80 -81
c-13 -14 -27 -25 -32 -25 -9 0 42 49 51 50 3 0 -6 -11 -19 -25z"/>
<path d="M1295 1960 c-4 -6 -1 -9 7 -8 7 2 12 -2 11 -8 -1 -6 5 -11 13 -11 11
0 11 4 -3 19 -19 21 -20 21 -28 8z"/>
<path d="M3240 4165 c0 -14 319 -225 347 -229 7 -1 16 -6 20 -11 4 -4 2 -5 -4
-1 -8 4 -13 1 -13 -7 0 -15 29 -32 38 -22 3 3 2 5 -3 5 -4 0 -2 6 4 13 8 11
-4 25 -59 66 -39 29 -75 49 -80 46 -6 -4 -9 -3 -8 2 2 4 -1 9 -5 10 -4 1 -15
9 -23 18 -29 28 -134 96 -134 86 0 -6 8 -15 18 -20 9 -6 13 -11 8 -11 -5 0
-31 13 -57 30 -27 16 -49 28 -49 25z"/>
<path d="M1948 4013 c6 -2 18 -2 25 0 6 3 1 5 -13 5 -14 0 -19 -2 -12 -5z"/>
<path d="M2040 4001 c30 -4 109 -7 175 -7 l120 -1 -105 7 c-58 4 -136 7 -175
7 l-70 0 55 -6z"/>
<path d="M3639 3918 c-6 -21 -5 -39 2 -44 5 -3 7 -9 4 -14 -3 -5 4 -7 15 -5
11 2 18 0 15 -4 -5 -9 11 -25 35 -33 11 -4 16 0 16 13 0 11 -7 21 -16 24 -8 3
-24 18 -35 35 -17 25 -33 37 -36 28z"/>
<path d="M3215 3857 c137 -47 186 -68 180 -77 -3 -5 -40 3 -83 16 -122 38
-133 40 -87 10 48 -31 42 -32 -33 -7 -88 30 -279 60 -387 62 -53 1 -99 -1
-102 -5 -4 -3 34 -6 83 -6 102 0 224 -16 238 -30 7 -7 -24 -8 -92 -4 -108 7
-442 -22 -442 -38 0 -10 -15 -10 160 7 261 27 280 28 280 18 0 -5 -54 -17
-121 -27 -66 -10 -132 -22 -147 -27 -26 -9 -26 -9 3 -4 17 3 105 8 198 12 122
4 167 3 167 -6 0 -7 -30 -12 -87 -13 l-88 -1 105 -9 c58 -5 120 -9 138 -9 17
0 32 -4 32 -9 0 -15 -41 -19 -133 -13 -51 3 -89 2 -85 -2 5 -5 27 -8 50 -7 32
0 38 -2 23 -8 -19 -7 -18 -9 8 -19 53 -21 129 -23 201 -7 76 18 92 15 49 -8
-43 -23 -18 -19 29 5 31 16 38 23 27 30 -8 5 -9 9 -3 9 6 0 17 -7 24 -15 16
-19 2 -31 -80 -72 -40 -20 -75 -29 -135 -33 l-80 -6 56 -8 c96 -14 265 34 253
72 -5 14 -4 15 5 2 36 -52 -123 -123 -259 -115 -59 3 -151 34 -180 60 -12 11
-24 13 -41 7 -23 -9 -23 -9 11 -28 97 -51 218 -74 330 -63 77 8 183 46 174 61
-4 7 -2 8 4 4 16 -10 61 16 101 57 24 26 35 47 38 79 6 53 -16 90 -40 70 -11
-9 -17 -10 -22 -2 -4 6 -3 9 2 8 4 -2 10 1 13 5 3 5 -20 17 -50 28 -119 43
-230 78 -266 84 -22 3 6 -9 61 -28z m-19 -93 c18 -14 18 -15 -4 -4 -12 6 -28
8 -34 4 -7 -4 -8 -3 -4 4 10 16 18 15 42 -4z m208 -20 c3 -8 10 -13 14 -10 5
3 9 -1 9 -9 0 -8 -3 -15 -6 -15 -10 1 -42 50 -33 50 6 0 13 -7 16 -16z m-145
-18 c27 -20 30 -25 13 -23 -11 0 -20 6 -19 12 1 5 -5 10 -14 9 -9 -1 -16 5
-16 12 0 17 -3 18 36 -10z m205 -35 c-9 -6 -16 -27 -17 -48 0 -7 -4 -13 -8
-13 -4 0 -6 12 -5 28 2 15 -1 30 -6 33 -6 4 2 7 17 7 15 0 23 -3 19 -7z m-72
-98 c-9 -24 -10 -21 -10 27 1 48 2 51 10 28 6 -18 6 -38 0 -55z m66 21 c-12
-12 -17 -13 -23 -3 -5 8 -4 10 4 5 6 -4 14 0 17 9 4 9 9 13 12 10 3 -3 -1 -13
-10 -21z"/>
<path d="M2125 3769 c11 -4 56 -8 100 -8 101 1 87 6 -30 12 -51 3 -81 1 -70
-4z"/>
<path d="M3741 3764 c0 -11 3 -14 6 -6 3 7 2 16 -1 19 -3 4 -6 -2 -5 -13z"/>
<path d="M1994 3739 c-26 -9 38 -22 91 -17 40 3 40 3 -16 14 -31 5 -65 7 -75
3z"/>
<path d="M2735 3720 c-4 -6 5 -10 19 -10 14 0 26 5 26 10 0 6 -9 10 -19 10
-11 0 -23 -4 -26 -10z"/>
<path d="M2808 3723 c6 -2 18 -2 25 0 6 3 1 5 -13 5 -14 0 -19 -2 -12 -5z"/>
<path d="M3752 3710 c0 -14 2 -19 5 -12 2 6 2 18 0 25 -3 6 -5 1 -5 -13z"/>
<path d="M2598 3693 c12 -2 30 -2 40 0 9 3 -1 5 -23 4 -22 0 -30 -2 -17 -4z"/>
<path d="M2910 3665 c30 -20 70 -40 90 -45 39 -11 166 -12 192 -2 10 4 -29 7
-85 7 -99 0 -104 1 -170 38 -85 47 -99 48 -27 2z"/>
<path d="M2048 3683 c7 -3 16 -2 19 1 4 3 -2 6 -13 5 -11 0 -14 -3 -6 -6z"/>
<path d="M2850 3654 c62 -43 142 -84 161 -83 8 0 -4 7 -26 16 -22 9 -65 35
-97 59 -31 24 -64 44 -73 44 -10 0 6 -16 35 -36z"/>
<path d="M2685 3660 c3 -5 21 -10 38 -10 24 0 28 3 17 10 -20 13 -63 13 -55 0z"/>
<path d="M3741 3654 c0 -11 3 -14 6 -6 3 7 2 16 -1 19 -3 4 -6 -2 -5 -13z"/>
<path d="M2745 3630 c3 -5 21 -10 38 -10 24 0 28 3 17 10 -20 13 -63 13 -55 0z"/>
<path d="M2815 3600 c-17 -7 -14 -9 13 -9 20 -1 31 3 27 9 -7 12 -13 12 -40 0z"/>
<path d="M1895 3581 c-3 -5 -2 -12 3 -15 5 -3 9 1 9 9 0 17 -3 19 -12 6z"/>
<path d="M1721 3364 c0 -11 3 -14 6 -6 3 7 2 16 -1 19 -3 4 -6 -2 -5 -13z"/>
<path d="M2905 2990 c-16 -3 -55 -18 -85 -33 -30 -15 -66 -27 -80 -26 -19 0
-16 3 15 13 47 15 118 52 75 39 -27 -8 -45 -7 -102 3 l-36 6 11 -44 c6 -23 19
-55 30 -70 13 -17 21 -47 23 -89 4 -73 14 -87 39 -59 10 11 25 20 33 20 12 0
12 4 -3 20 -15 17 -16 22 -4 37 8 10 18 21 22 24 5 3 8 10 6 15 -4 14 85 55
133 62 l43 7 -40 5 c-39 6 -37 7 45 25 47 11 77 21 67 23 -9 2 -60 -6 -112
-18 -52 -12 -100 -20 -107 -18 -6 2 28 12 76 22 47 10 89 23 93 29 6 10 -24 7
-99 -12 -41 -10 -51 -5 -16 8 29 11 10 19 -27 11z"/>
<path d="M2005 2981 c-33 -4 -69 -12 -80 -19 -18 -11 -17 -12 10 -8 17 2 61 9
98 16 69 12 99 8 56 -9 l-24 -9 28 -12 c15 -7 27 -17 27 -21 0 -17 60 -39 105
-39 65 0 153 -27 166 -51 5 -11 13 -42 16 -69 5 -45 7 -48 19 -32 8 12 11 39
9 75 -4 48 -2 59 17 77 31 29 43 25 19 -6 -25 -32 -28 -55 -4 -31 9 9 24 37
34 62 l17 46 -21 -6 c-12 -4 -29 -9 -39 -11 -9 -3 -43 4 -75 15 -32 10 -78 19
-103 19 l-45 1 33 -30 c19 -17 32 -32 30 -35 -3 -2 -20 11 -39 30 -32 30 -70
56 -83 56 -3 0 -3 -8 1 -17 6 -17 5 -17 -14 0 -20 18 -47 19 -158 8z m405 -74
c12 -4 12 -6 -2 -6 -9 -1 -30 11 -45 25 l-28 26 30 -20 c17 -10 37 -22 45 -25z
m-179 6 c13 -16 12 -17 -3 -4 -10 7 -18 15 -18 17 0 8 8 3 21 -13z m110 0 c13
-16 12 -17 -3 -4 -10 7 -18 15 -18 17 0 8 8 3 21 -13z"/>
<path d="M2028 2943 c6 -2 18 -2 25 0 6 3 1 5 -13 5 -14 0 -19 -2 -12 -5z"/>
<path d="M3120 2934 l-75 -13 67 5 c37 2 78 9 90 14 30 12 9 10 -82 -6z"/>
<path d="M2040 2910 c-25 -10 -65 -23 -90 -29 l-45 -10 45 5 c65 8 113 21 135
38 26 20 10 19 -45 -4z"/>
<path d="M2086 2889 l-29 -17 47 1 c50 2 55 6 29 23 -14 8 -25 7 -47 -7z"/>
<path d="M1807 2882 c-10 -10 -17 -25 -17 -33 0 -9 -7 -24 -15 -35 -22 -29
-18 -33 18 -20 41 16 97 49 97 59 0 13 -12 8 -47 -19 -39 -30 -55 -26 -22 5
19 17 20 21 6 21 -20 0 -22 11 -5 28 7 7 10 12 7 12 -3 0 -13 -8 -22 -18z"/>
<path d="M3032 2895 c4 -4 22 -8 40 -10 18 -1 53 -8 77 -14 47 -13 131 -7 131
10 0 12 -36 12 -77 0 -18 -5 -33 -5 -35 -1 -2 5 -34 12 -73 16 -38 4 -67 3
-63 -1z"/>
<path d="M3270 2850 c-15 -3 -20 -9 -13 -13 6 -4 21 -3 34 1 29 11 12 21 -21
12z"/>
<path d="M3661 2834 c0 -11 3 -14 6 -6 3 7 2 16 -1 19 -3 4 -6 -2 -5 -13z"/>
<path d="M1970 2820 c-14 -6 -52 -40 -85 -76 -66 -73 -98 -85 -144 -56 l-26
16 19 -22 c25 -29 81 -30 111 -2 19 18 49 30 80 32 6 1 21 -2 35 -7 24 -7 24
-7 7 12 -16 19 -16 20 8 31 34 16 32 17 39 -18 l6 -30 75 0 c69 0 75 2 75 20
0 11 6 23 14 26 13 5 27 -1 99 -43 34 -19 32 -6 -3 24 -44 37 -60 43 -155 57
-100 15 -142 8 -197 -35 -33 -26 -39 -28 -23 -9 38 47 57 59 102 66 83 12 165
-3 247 -46 42 -22 79 -40 82 -40 14 0 -19 30 -39 36 -12 4 -39 20 -59 36 -34
27 -45 29 -140 34 -59 2 -114 0 -128 -6z m80 -84 c0 -3 -4 -8 -10 -11 -5 -3
-10 -1 -10 4 0 6 5 11 10 11 6 0 10 -2 10 -4z"/>
<path d="M3310 2805 c7 -8 16 -15 21 -15 5 0 6 7 3 15 -4 8 -13 15 -21 15 -13
0 -13 -3 -3 -15z"/>
<path d="M1886 2798 c3 -5 10 -6 15 -3 13 9 11 12 -6 12 -8 0 -12 -4 -9 -9z"/>
<path d="M3671 2780 c0 -8 4 -22 9 -30 12 -18 12 -2 0 25 -6 13 -9 15 -9 5z"/>
<path d="M1640 2735 c7 -9 15 -13 17 -11 7 7 -7 26 -19 26 -6 0 -6 -6 2 -15z"/>
<path d="M1750 2635 c14 -8 34 -14 45 -14 11 0 2 6 -20 14 -50 18 -57 18 -25
0z"/>
<path d="M3030 2631 c48 -15 120 -22 120 -13 0 14 -37 22 -95 21 -39 -1 -45
-2 -25 -8z"/>
<path d="M2210 2598 c-35 -15 -58 -19 -105 -15 -33 3 -68 8 -79 13 -14 5 -17
3 -14 -6 2 -8 26 -20 53 -27 45 -11 56 -10 118 12 70 24 84 31 76 39 -2 3 -25
-4 -49 -16z"/>
<path d="M2960 2618 c0 -3 31 -16 70 -29 63 -20 73 -21 110 -9 22 7 40 16 40
19 0 3 -24 6 -52 7 -29 0 -79 4 -110 9 -32 4 -58 5 -58 3z"/>
<path d="M3380 2602 c0 -5 7 -15 15 -22 8 -7 15 -8 15 -2 0 5 -7 15 -15 22 -8
7 -15 8 -15 2z"/>
<path d="M3325 2560 c-3 -6 1 -7 9 -4 18 7 21 14 7 14 -6 0 -13 -4 -16 -10z"/>
<path d="M3357 2519 c7 -7 15 -10 18 -7 3 3 -2 9 -12 12 -14 6 -15 5 -6 -5z"/>
<path d="M2801 2396 c-1 -49 5 -72 35 -133 41 -83 38 -98 -21 -96 -27 1 -43
-6 -67 -30 -18 -18 -29 -26 -24 -19 9 14 9 14 -33 2 -22 -6 -40 -6 -52 1 -14
7 -19 6 -19 -3 0 -9 -3 -9 -8 -2 -4 6 -20 17 -37 26 -16 8 -47 25 -68 37 -41
23 -77 21 -77 -6 0 -8 -10 -28 -21 -45 -17 -23 -24 -27 -30 -16 -16 25 -9 65
26 141 19 42 35 78 35 82 0 14 -52 -30 -70 -61 -31 -49 -33 -162 -4 -201 27
-35 48 -40 89 -18 42 23 98 13 132 -23 19 -21 32 -25 64 -23 54 3 138 41 195
88 46 38 46 38 41 90 -3 28 -15 73 -27 100 -12 26 -30 75 -40 108 l-18 60 -1
-59z m-236 -276 c10 -11 16 -20 13 -20 -3 0 -13 9 -23 20 -10 11 -16 20 -13
20 3 0 13 -9 23 -20z m275 6 c0 -2 -8 -10 -17 -17 -16 -13 -17 -12 -4 4 13 16
21 21 21 13z m-195 -25 c3 -5 2 -12 -3 -15 -5 -3 -9 1 -9 9 0 17 3 19 12 6z
m59 -3 c-3 -4 -9 -8 -15 -8 -5 0 -9 4 -9 8 0 5 7 9 15 9 8 0 12 -4 9 -9z"/>
<path d="M1720 1841 c0 -6 4 -13 10 -16 6 -3 7 1 4 9 -7 18 -14 21 -14 7z"/>
<path d="M2975 1756 c-22 -7 -54 -20 -72 -29 -44 -23 -123 -14 -116 14 5 18 4
18 -28 2 -19 -9 -41 -21 -49 -28 -8 -7 -25 -16 -38 -20 -19 -5 -25 -2 -29 14
-4 17 -13 21 -44 21 -23 0 -41 -6 -46 -15 -9 -16 -63 -22 -110 -11 -19 4 -34
3 -38 -3 -9 -16 -93 -13 -140 4 -36 14 -44 14 -80 0 l-40 -15 41 5 c26 3 56
-1 79 -11 57 -23 395 -20 472 5 35 11 53 12 101 1 56 -12 60 -11 126 19 45 20
77 29 92 25 14 -4 24 -2 24 4 0 24 -55 33 -105 18z"/>
<path d="M2820 1603 c-63 -31 -69 -32 -199 -32 -98 -1 -148 3 -187 16 -46 14
-54 14 -67 1 -13 -13 -5 -19 71 -57 l85 -42 101 6 c102 7 215 43 202 64 -3 5
10 23 30 41 20 17 35 32 33 33 -2 1 -33 -12 -69 -30z"/>
<path d="M2840 1575 c-7 -8 -8 -15 -2 -15 5 0 15 7 22 15 7 8 8 15 2 15 -5 0
-15 -7 -22 -15z"/>
<path d="M1676 1510 c8 -28 12 -56 8 -62 -4 -7 -3 -8 4 -4 11 7 13 3 16 -36 1
-7 4 -15 7 -18 4 -3 21 -34 39 -70 18 -36 54 -95 81 -131 26 -37 45 -70 41
-74 -4 -4 0 -5 8 -3 8 1 14 -3 12 -10 -1 -6 1 -11 5 -10 5 1 17 -3 28 -8 11
-6 32 -14 48 -18 35 -8 36 12 2 52 -14 17 -25 35 -25 41 0 6 -5 11 -11 11 -5
0 -7 5 -4 10 3 6 2 10 -4 10 -6 0 -29 33 -52 73 -23 39 -55 91 -71 115 -15 24
-26 47 -23 52 3 6 0 7 -8 4 -22 -8 -60 49 -44 65 9 10 8 11 -5 6 -12 -5 -20
-1 -25 11 -7 20 -28 44 -37 44 -3 0 2 -23 10 -50z"/>
<path d="M1450 1373 c-28 -27 -99 -115 -158 -198 -71 -99 -124 -162 -157 -187
-53 -40 -77 -50 -540 -229 -159 -61 -359 -141 -442 -176 l-153 -65 0 -259 0
-259 845 0 c465 0 845 3 845 6 0 16 -60 238 -126 466 -107 373 -117 422 -117
558 0 97 6 136 35 253 19 75 31 137 27 137 -4 0 -31 -21 -59 -47z"/>
<path d="M1901 1314 c13 -18 36 -39 51 -48 15 -9 33 -22 40 -29 34 -32 202
-106 243 -107 34 0 -179 123 -275 160 -19 7 -46 23 -59 34 l-25 21 25 -31z"/>
<path d="M2210 1084 c0 -2 33 -26 74 -53 71 -46 78 -48 172 -57 129 -11 302
-9 334 3 19 8 -12 11 -120 12 -207 2 -289 15 -382 61 -43 21 -78 37 -78 34z"/>
<path d="M2500 538 c-25 -5 -57 -12 -72 -16 -16 -4 -63 -47 -120 -110 -51 -56
-149 -162 -218 -234 -135 -142 -122 -142 30 0 l94 88 96 -79 c95 -80 135 -134
124 -169 -5 -17 8 -18 171 -18 l175 0 -21 42 c-12 24 -28 51 -37 60 -14 17
-11 22 38 73 30 30 60 66 67 80 8 14 17 25 21 25 4 0 27 -30 52 -67 25 -36 71
-93 103 -127 43 -45 51 -50 30 -21 -16 22 -76 107 -133 189 -57 82 -135 183
-173 223 l-70 73 -56 -1 c-31 -1 -76 -6 -101 -11z"/>
</g>
</svg>
